<svg xmlns="http://www.w3.org/2000/svg" width="18" height="18" viewBox="0 0 24 24" fill="currentColor">
  <path d="M16.365 1.43c0 1.14-.467 2.25-1.23 3.06-.79.84-2.17 1.49-3.3 1.42-.15-1.09.44-2.25 1.18-3.01.82-.86 2.28-1.49 3.35-1.47z"/>
  <path d="M20.81 17.14c-.6 1.39-.89 1.99-1.66 3.21-1.08 1.77-2.6 3.99-4.48 4-1.9.01-2.39-1.28-4.45-1.27-2.06.01-2.6 1.29-4.5 1.28-1.88-.01-3.32-2.02-4.41-3.78-3.02-4.95-3.34-10.75-1.49-13.81 1.32-2.17 3.41-3.44 5.39-3.44 2 0 3.25 1.31 4.9 1.31 1.62 0 2.6-1.31 4.91-1.31 1.77 0 3.65.96 4.97 2.61-4.36 2.39-3.65 8.63.92 10.2z"/>
</svg>
