<svg xmlns="http://www.w3.org/2000/svg" width="18" height="18" viewBox="0 0 48 48" fill="none">
  <path fill="#FFC107" d="M43.611 20.083H42V20H24v8h11.303c-1.649 4.657-6.08 8-11.303 8-6.627 0-12-5.373-12-12s5.373-12 12-12c3.059 0 5.842 1.154 7.961 3.039l5.657-5.657C32.888 6.053 28.684 4 24 4 12.955 4 4 12.955 4 24s8.955 20 20 20 20-8.955 20-20c0-1.341-.138-2.651-.389-3.917z"/>
  <path fill="#FF3D00" d="M6.306 14.691l6.571 4.817C14.74 16.081 19.03 13 24 13c3.059 0 5.842 1.154 7.961 3.039l5.657-5.657C32.888 6.053 28.684 4 24 4c-7.63 0-14.236 4.337-17.694 10.691z"/>
  <path fill="#4CAF50" d="M24 44c5.17 0 9.86-1.977 13.409-5.197l-6.198-5.238C29.17 35.49 26.71 36.5 24 36.5c-5.206 0-9.62-3.324-11.275-7.96l-6.52 5.02C8.645 39.47 15.79 44 24 44z"/>
  <path fill="#1976D2" d="M43.611 20.083H42V20H24v8h11.303c-.793 2.24-2.242 4.162-4.092 5.565l.003-.002 6.198 5.238C39.894 36.9 44 31.5 44 24c0-1.341-.138-2.651-.389-3.917z"/>
</svg>
